<svg width="49" height="37" viewBox="0 0 49 37" fill="none" xmlns="http://www.w3.org/2000/svg">
<path d="M15.891 36.6C12.7243 36.6 9.99102 35.8333 7.69102 34.3C5.39102 32.7667 3.62435 30.65 2.39102 27.95C1.19102 25.2167 0.591016 22.0667 0.591016 18.5C0.591016 14.9333 1.19102 11.8 2.39102 9.1C3.62435 6.36667 5.37435 4.23333 7.64102 2.7C9.94102 1.16667 12.691 0.399999 15.891 0.399999C19.091 0.399999 21.8243 1.16667 24.091 2.7C26.391 4.23333 28.141 6.36667 29.341 9.1C30.5744 11.8 31.191 14.9333 31.191 18.5C31.191 22.0667 30.5744 25.2167 29.341 27.95C28.141 30.65 26.391 32.7667 24.091 34.3C21.8243 35.8333 19.091 36.6 15.891 36.6ZM15.891 30.55C17.5577 30.55 19.0243 30.0667 20.291 29.1C21.5577 28.1 22.541 26.7 23.241 24.9C23.9744 23.1 24.341 20.9667 24.341 18.5C24.341 16 23.9744 13.8667 23.241 12.1C22.541 10.3 21.5577 8.91667 20.291 7.95C19.0243 6.98333 17.5577 6.5 15.891 6.5C14.2243 6.5 12.7577 6.98333 11.491 7.95C10.2243 8.91667 9.22435 10.3 8.49102 12.1C7.79102 13.8667 7.44102 16 7.44102 18.5C7.44102 20.9667 7.79102 23.1 8.49102 24.9C9.22435 26.7 10.2243 28.1 11.491 29.1C12.7577 30.0667 14.2243 30.55 15.891 30.55ZM41.2461 36V8.75L35.0461 10.4V5L44.1461 0.999998H48.2461V36H41.2461Z" fill="url(#paint0_linear_6428_457)"/>
<defs>
<linearGradient id="paint0_linear_6428_457" x1="25.5745" y1="-26.5" x2="25.5745" y2="57" gradientUnits="userSpaceOnUse">
<stop stop-color="#98BCD3"/>
<stop offset="1" stop-color="#003E68"/>
</linearGradient>
</defs>
</svg>
