<svg width="61" height="37" viewBox="0 0 61 37" fill="none" xmlns="http://www.w3.org/2000/svg">
<path d="M15.6664 36.6C12.4997 36.6 9.76641 35.8333 7.46641 34.3C5.16641 32.7667 3.39974 30.65 2.16641 27.95C0.966406 25.2167 0.366406 22.0667 0.366406 18.5C0.366406 14.9333 0.966406 11.8 2.16641 9.1C3.39974 6.36667 5.14974 4.23333 7.41641 2.7C9.71641 1.16667 12.4664 0.399999 15.6664 0.399999C18.8664 0.399999 21.5997 1.16667 23.8664 2.7C26.1664 4.23333 27.9164 6.36667 29.1164 9.1C30.3497 11.8 30.9664 14.9333 30.9664 18.5C30.9664 22.0667 30.3497 25.2167 29.1164 27.95C27.9164 30.65 26.1664 32.7667 23.8664 34.3C21.5997 35.8333 18.8664 36.6 15.6664 36.6ZM15.6664 30.55C17.3331 30.55 18.7997 30.0667 20.0664 29.1C21.3331 28.1 22.3164 26.7 23.0164 24.9C23.7497 23.1 24.1164 20.9667 24.1164 18.5C24.1164 16 23.7497 13.8667 23.0164 12.1C22.3164 10.3 21.3331 8.91667 20.0664 7.95C18.7997 6.98333 17.3331 6.5 15.6664 6.5C13.9997 6.5 12.5331 6.98333 11.2664 7.95C9.99974 8.91667 8.99974 10.3 8.26641 12.1C7.56641 13.8667 7.21641 16 7.21641 18.5C7.21641 20.9667 7.56641 23.1 8.26641 24.9C8.99974 26.7 9.99974 28.1 11.2664 29.1C12.5331 30.0667 13.9997 30.55 15.6664 30.55ZM35.5762 36V31.05C37.7095 29.35 39.7762 27.65 41.7762 25.95C43.8095 24.25 45.6262 22.5667 47.2262 20.9C48.8262 19.2 50.0928 17.55 51.0262 15.95C51.9595 14.35 52.4262 12.8 52.4262 11.3C52.4262 10.3667 52.2595 9.51667 51.9262 8.75C51.5928 7.95 51.0595 7.31667 50.3262 6.85C49.6262 6.35 48.6928 6.1 47.5262 6.1C46.3595 6.1 45.3762 6.36666 44.5762 6.9C43.7762 7.43333 43.1762 8.15 42.7762 9.05C42.3762 9.91667 42.1762 10.9 42.1762 12H35.6262C35.7262 9.43333 36.3095 7.28333 37.3762 5.55C38.4428 3.81667 39.8762 2.53333 41.6762 1.7C43.4762 0.833332 45.4928 0.399999 47.7262 0.399999C50.1928 0.399999 52.2762 0.866666 53.9762 1.8C55.6762 2.7 56.9595 3.93333 57.8262 5.5C58.7262 7.06667 59.1762 8.86667 59.1762 10.9C59.1762 12.4333 58.8928 13.9333 58.3262 15.4C57.7928 16.8667 57.0262 18.3 56.0262 19.7C55.0595 21.0667 53.9595 22.3833 52.7262 23.65C51.4928 24.9167 50.2095 26.1333 48.8762 27.3C47.5428 28.4333 46.2428 29.5 44.9762 30.5H60.0262V36H35.5762Z" fill="url(#paint0_linear_6428_474)"/>
<defs>
<linearGradient id="paint0_linear_6428_474" x1="30.6809" y1="-26.5" x2="30.6809" y2="57" gradientUnits="userSpaceOnUse">
<stop stop-color="#98BCD3"/>
<stop offset="1" stop-color="#003E68"/>
</linearGradient>
</defs>
</svg>
