<svg width="61" height="37" viewBox="0 0 61 37" fill="none" xmlns="http://www.w3.org/2000/svg">
<path d="M15.934 36.6C12.7673 36.6 10.034 35.8333 7.73398 34.3C5.43398 32.7667 3.66732 30.65 2.43398 27.95C1.23398 25.2167 0.633985 22.0667 0.633985 18.5C0.633985 14.9333 1.23398 11.8 2.43398 9.1C3.66732 6.36667 5.41732 4.23333 7.68398 2.7C9.98398 1.16667 12.734 0.399999 15.934 0.399999C19.134 0.399999 21.8673 1.16667 24.134 2.7C26.434 4.23333 28.184 6.36667 29.384 9.1C30.6173 11.8 31.234 14.9333 31.234 18.5C31.234 22.0667 30.6173 25.2167 29.384 27.95C28.184 30.65 26.434 32.7667 24.134 34.3C21.8673 35.8333 19.134 36.6 15.934 36.6ZM15.934 30.55C17.6007 30.55 19.0673 30.0667 20.334 29.1C21.6007 28.1 22.584 26.7 23.284 24.9C24.0173 23.1 24.384 20.9667 24.384 18.5C24.384 16 24.0173 13.8667 23.284 12.1C22.584 10.3 21.6007 8.91667 20.334 7.95C19.0673 6.98333 17.6007 6.5 15.934 6.5C14.2673 6.5 12.8007 6.98333 11.534 7.95C10.2673 8.91667 9.26732 10.3 8.53398 12.1C7.83399 13.8667 7.48399 16 7.48399 18.5C7.48399 20.9667 7.83399 23.1 8.53398 24.9C9.26732 26.7 10.2673 28.1 11.534 29.1C12.8007 30.0667 14.2673 30.55 15.934 30.55ZM48.5391 36.6C46.2724 36.6 44.1891 36.1833 42.2891 35.35C40.3891 34.5167 38.8724 33.25 37.7391 31.55C36.6057 29.85 36.0057 27.7 35.9391 25.1H42.5391C42.5724 26.2 42.8224 27.2 43.2891 28.1C43.7557 28.9667 44.4391 29.6667 45.3391 30.2C46.2391 30.7 47.3057 30.95 48.5391 30.95C49.7057 30.95 50.7057 30.7167 51.5391 30.25C52.3724 29.7833 53.0057 29.1667 53.4391 28.4C53.8724 27.6333 54.0891 26.75 54.0891 25.75C54.0891 24.5833 53.7891 23.6167 53.1891 22.85C52.6224 22.05 51.8224 21.45 50.7891 21.05C49.7891 20.65 48.6391 20.45 47.3391 20.45H44.7391V14.9H47.3391C48.9724 14.9 50.3391 14.5167 51.4391 13.75C52.5724 12.9833 53.1391 11.8333 53.1391 10.3C53.1391 9.03333 52.7224 8.01666 51.8891 7.25C51.0891 6.48333 49.9557 6.1 48.4891 6.1C46.8891 6.1 45.6391 6.56666 44.7391 7.5C43.8391 8.43333 43.3391 9.58333 43.2391 10.95H36.6391C36.7391 8.75 37.2891 6.86667 38.2891 5.3C39.3224 3.7 40.7057 2.48333 42.4391 1.65C44.1724 0.816666 46.1891 0.399999 48.4891 0.399999C50.9224 0.399999 52.9724 0.833332 54.6391 1.7C56.3391 2.53333 57.6224 3.66667 58.4891 5.1C59.3557 6.53333 59.7891 8.08333 59.7891 9.75C59.7891 11.1167 59.5224 12.3333 58.9891 13.4C58.4891 14.4667 57.8057 15.35 56.9391 16.05C56.0724 16.75 55.1224 17.25 54.0891 17.55C55.3891 17.8167 56.5224 18.3333 57.4891 19.1C58.4891 19.8333 59.2557 20.7833 59.7891 21.95C60.3557 23.1167 60.6391 24.4667 60.6391 26C60.6391 27.9 60.1724 29.6667 59.2391 31.3C58.3391 32.9 56.9724 34.1833 55.1391 35.15C53.3391 36.1167 51.1391 36.6 48.5391 36.6Z" fill="url(#paint0_linear_6428_477)"/>
<defs>
<linearGradient id="paint0_linear_6428_477" x1="31.7021" y1="-26.5" x2="31.7021" y2="57" gradientUnits="userSpaceOnUse">
<stop stop-color="#98BCD3"/>
<stop offset="1" stop-color="#003E68"/>
</linearGradient>
</defs>
</svg>
