<svg width="65" height="37" viewBox="0 0 65 37" fill="none" xmlns="http://www.w3.org/2000/svg">
<path d="M15.7377 36.6C12.571 36.6 9.8377 35.8333 7.5377 34.3C5.2377 32.7667 3.47103 30.65 2.2377 27.95C1.0377 25.2167 0.437696 22.0667 0.437696 18.5C0.437696 14.9333 1.0377 11.8 2.2377 9.1C3.47103 6.36667 5.22103 4.23333 7.4877 2.7C9.7877 1.16667 12.5377 0.399999 15.7377 0.399999C18.9377 0.399999 21.671 1.16667 23.9377 2.7C26.2377 4.23333 27.9877 6.36667 29.1877 9.1C30.421 11.8 31.0377 14.9333 31.0377 18.5C31.0377 22.0667 30.421 25.2167 29.1877 27.95C27.9877 30.65 26.2377 32.7667 23.9377 34.3C21.671 35.8333 18.9377 36.6 15.7377 36.6ZM15.7377 30.55C17.4044 30.55 18.871 30.0667 20.1377 29.1C21.4044 28.1 22.3877 26.7 23.0877 24.9C23.821 23.1 24.1877 20.9667 24.1877 18.5C24.1877 16 23.821 13.8667 23.0877 12.1C22.3877 10.3 21.4044 8.91667 20.1377 7.95C18.871 6.98333 17.4044 6.5 15.7377 6.5C14.071 6.5 12.6044 6.98333 11.3377 7.95C10.071 8.91667 9.07103 10.3 8.3377 12.1C7.6377 13.8667 7.2877 16 7.2877 18.5C7.2877 20.9667 7.6377 23.1 8.3377 24.9C9.07103 26.7 10.071 28.1 11.3377 29.1C12.6044 30.0667 14.071 30.55 15.7377 30.55ZM52.7928 36V29.65H35.5928V24.3L51.8928 0.999998H59.5428V23.8H64.0928V29.65H59.5428V36H52.7928ZM42.7928 23.8H53.2428V8.45L42.7928 23.8Z" fill="url(#paint0_linear_6428_481)"/>
<defs>
<linearGradient id="paint0_linear_6428_481" x1="32.7234" y1="-26.5" x2="32.7234" y2="57" gradientUnits="userSpaceOnUse">
<stop stop-color="#98BCD3"/>
<stop offset="1" stop-color="#003E68"/>
</linearGradient>
</defs>
</svg>
