<svg width="63" height="37" viewBox="0 0 63 37" fill="none" xmlns="http://www.w3.org/2000/svg">
<path d="M15.9457 36.6C12.779 36.6 10.0457 35.8333 7.7457 34.3C5.4457 32.7667 3.67904 30.65 2.4457 27.95C1.2457 25.2167 0.645703 22.0667 0.645703 18.5C0.645703 14.9333 1.2457 11.8 2.4457 9.1C3.67904 6.36667 5.42904 4.23333 7.6957 2.7C9.9957 1.16667 12.7457 0.399999 15.9457 0.399999C19.1457 0.399999 21.879 1.16667 24.1457 2.7C26.4457 4.23333 28.1957 6.36667 29.3957 9.1C30.629 11.8 31.2457 14.9333 31.2457 18.5C31.2457 22.0667 30.629 25.2167 29.3957 27.95C28.1957 30.65 26.4457 32.7667 24.1457 34.3C21.879 35.8333 19.1457 36.6 15.9457 36.6ZM15.9457 30.55C17.6124 30.55 19.079 30.0667 20.3457 29.1C21.6124 28.1 22.5957 26.7 23.2957 24.9C24.029 23.1 24.3957 20.9667 24.3957 18.5C24.3957 16 24.029 13.8667 23.2957 12.1C22.5957 10.3 21.6124 8.91667 20.3457 7.95C19.079 6.98333 17.6124 6.5 15.9457 6.5C14.279 6.5 12.8124 6.98333 11.5457 7.95C10.279 8.91667 9.27904 10.3 8.5457 12.1C7.8457 13.8667 7.4957 16 7.4957 18.5C7.4957 20.9667 7.8457 23.1 8.5457 24.9C9.27904 26.7 10.279 28.1 11.5457 29.1C12.8124 30.0667 14.279 30.55 15.9457 30.55ZM49.5008 36.6C46.9674 36.6 44.7674 36.15 42.9008 35.25C41.0674 34.35 39.6341 33.1167 38.6008 31.55C37.5674 29.9833 36.9674 28.2 36.8008 26.2H43.4008C43.6341 27.5 44.3008 28.6 45.4008 29.5C46.5008 30.4 47.8841 30.85 49.5508 30.85C50.7508 30.85 51.8008 30.55 52.7008 29.95C53.6008 29.35 54.3008 28.55 54.8008 27.55C55.3008 26.5167 55.5508 25.35 55.5508 24.05C55.5508 22.7167 55.2841 21.5667 54.7508 20.6C54.2508 19.6333 53.5508 18.8833 52.6508 18.35C51.7841 17.8167 50.7841 17.55 49.6508 17.55C48.2174 17.55 46.9841 17.9 45.9508 18.6C44.9508 19.2667 44.2341 20.0833 43.8008 21.05H37.2508L40.1508 0.999998H59.8008V6.9H45.1508L43.7008 14.7C44.4341 13.9333 45.4174 13.3167 46.6508 12.85C47.8841 12.35 49.2674 12.1 50.8008 12.1C52.7008 12.1 54.3508 12.4333 55.7508 13.1C57.1508 13.7333 58.3174 14.6167 59.2508 15.75C60.1841 16.85 60.8841 18.1167 61.3508 19.55C61.8175 20.95 62.0508 22.4333 62.0508 24C62.0508 25.8333 61.7341 27.5167 61.1008 29.05C60.5008 30.5833 59.6341 31.9167 58.5008 33.05C57.4008 34.1833 56.0841 35.0667 54.5508 35.7C53.0508 36.3 51.3674 36.6 49.5008 36.6Z" fill="url(#paint0_linear_6428_488)"/>
<defs>
<linearGradient id="paint0_linear_6428_488" x1="32.2128" y1="-26.5" x2="32.2128" y2="57" gradientUnits="userSpaceOnUse">
<stop stop-color="#98BCD3"/>
<stop offset="1" stop-color="#003E68"/>
</linearGradient>
</defs>
</svg>
