<svg width="63" height="37" viewBox="0 0 63 37" fill="none" xmlns="http://www.w3.org/2000/svg">
<path d="M15.6527 36.6C12.4861 36.6 9.75273 35.8333 7.45273 34.3C5.15273 32.7667 3.38607 30.65 2.15273 27.95C0.952735 25.2167 0.352735 22.0667 0.352735 18.5C0.352735 14.9333 0.952735 11.8 2.15273 9.1C3.38607 6.36667 5.13607 4.23333 7.40273 2.7C9.70273 1.16667 12.4527 0.399999 15.6527 0.399999C18.8527 0.399999 21.5861 1.16667 23.8527 2.7C26.1527 4.23333 27.9027 6.36667 29.1027 9.1C30.3361 11.8 30.9527 14.9333 30.9527 18.5C30.9527 22.0667 30.3361 25.2167 29.1027 27.95C27.9027 30.65 26.1527 32.7667 23.8527 34.3C21.5861 35.8333 18.8527 36.6 15.6527 36.6ZM15.6527 30.55C17.3194 30.55 18.7861 30.0667 20.0527 29.1C21.3194 28.1 22.3027 26.7 23.0027 24.9C23.7361 23.1 24.1027 20.9667 24.1027 18.5C24.1027 16 23.7361 13.8667 23.0027 12.1C22.3027 10.3 21.3194 8.91667 20.0527 7.95C18.7861 6.98333 17.3194 6.5 15.6527 6.5C13.9861 6.5 12.5194 6.98333 11.2527 7.95C9.98607 8.91667 8.98607 10.3 8.25273 12.1C7.55274 13.8667 7.20274 16 7.20274 18.5C7.20274 20.9667 7.55274 23.1 8.25273 24.9C8.98607 26.7 9.98607 28.1 11.2527 29.1C12.5194 30.0667 13.9861 30.55 15.6527 30.55ZM49.8578 36.6C47.2245 36.6 44.9911 36.1167 43.1578 35.15C41.3578 34.1833 39.9078 32.8833 38.8078 31.25C37.7411 29.6167 36.9578 27.8 36.4578 25.8C35.9911 23.7667 35.7578 21.7167 35.7578 19.65C35.7578 15.7167 36.3078 12.3167 37.4078 9.45C38.5078 6.58333 40.0911 4.36666 42.1578 2.8C44.2245 1.2 46.7245 0.399999 49.6578 0.399999C52.1245 0.399999 54.2078 0.883332 55.9078 1.85C57.6078 2.78333 58.9245 4.01667 59.8578 5.55C60.7911 7.08333 61.3411 8.73333 61.5078 10.5H55.2078C54.9411 9.03333 54.3245 7.91667 53.3578 7.15C52.3911 6.35 51.1411 5.95 49.6078 5.95C48.1745 5.95 46.9245 6.38333 45.8578 7.25C44.7911 8.11667 43.9578 9.41667 43.3578 11.15C42.7911 12.8833 42.4578 15.0667 42.3578 17.7C42.3578 17.7333 42.3578 17.7833 42.3578 17.85C42.3578 17.9167 42.3578 17.9667 42.3578 18C42.8911 17.1 43.5911 16.3 44.4578 15.6C45.3245 14.9 46.3245 14.35 47.4578 13.95C48.5911 13.55 49.7911 13.35 51.0578 13.35C52.9911 13.35 54.7911 13.8167 56.4578 14.75C58.1245 15.6833 59.4745 17 60.5078 18.7C61.5411 20.4 62.0578 22.4167 62.0578 24.75C62.0578 26.85 61.5411 28.8167 60.5078 30.65C59.5078 32.45 58.0911 33.9 56.2578 35C54.4245 36.0667 52.2911 36.6 49.8578 36.6ZM49.4578 30.8C50.6578 30.8 51.7078 30.55 52.6078 30.05C53.5411 29.55 54.2745 28.8667 54.8078 28C55.3411 27.1 55.6078 26.0833 55.6078 24.95C55.6078 23.75 55.3411 22.7167 54.8078 21.85C54.2745 20.9833 53.5411 20.3 52.6078 19.8C51.6745 19.3 50.6078 19.05 49.4078 19.05C48.2411 19.05 47.1911 19.3 46.2578 19.8C45.3245 20.3 44.5745 21 44.0078 21.9C43.4745 22.7667 43.2078 23.7667 43.2078 24.9C43.2078 26.0667 43.4745 27.1 44.0078 28C44.5745 28.8667 45.3245 29.55 46.2578 30.05C47.2245 30.55 48.2911 30.8 49.4578 30.8Z" fill="url(#paint0_linear_6428_492)"/>
<defs>
<linearGradient id="paint0_linear_6428_492" x1="32.2128" y1="-26.5" x2="32.2128" y2="57" gradientUnits="userSpaceOnUse">
<stop stop-color="#98BCD3"/>
<stop offset="1" stop-color="#003E68"/>
</linearGradient>
</defs>
</svg>
