<svg width="59" height="37" viewBox="0 0 59 37" fill="none" xmlns="http://www.w3.org/2000/svg">
<path d="M15.7162 36.6C12.5495 36.6 9.81621 35.8333 7.51621 34.3C5.21621 32.7667 3.44954 30.65 2.21621 27.95C1.01621 25.2167 0.416211 22.0667 0.416211 18.5C0.416211 14.9333 1.01621 11.8 2.21621 9.1C3.44954 6.36667 5.19954 4.23333 7.46621 2.7C9.76621 1.16667 12.5162 0.399999 15.7162 0.399999C18.9162 0.399999 21.6495 1.16667 23.9162 2.7C26.2162 4.23333 27.9662 6.36667 29.1662 9.1C30.3995 11.8 31.0162 14.9333 31.0162 18.5C31.0162 22.0667 30.3995 25.2167 29.1662 27.95C27.9662 30.65 26.2162 32.7667 23.9162 34.3C21.6495 35.8333 18.9162 36.6 15.7162 36.6ZM15.7162 30.55C17.3829 30.55 18.8495 30.0667 20.1162 29.1C21.3829 28.1 22.3662 26.7 23.0662 24.9C23.7995 23.1 24.1662 20.9667 24.1662 18.5C24.1662 16 23.7995 13.8667 23.0662 12.1C22.3662 10.3 21.3829 8.91667 20.1162 7.95C18.8495 6.98333 17.3829 6.5 15.7162 6.5C14.0495 6.5 12.5829 6.98333 11.3162 7.95C10.0495 8.91667 9.04954 10.3 8.31621 12.1C7.61621 13.8667 7.26621 16 7.26621 18.5C7.26621 20.9667 7.61621 23.1 8.31621 24.9C9.04954 26.7 10.0495 28.1 11.3162 29.1C12.5829 30.0667 14.0495 30.55 15.7162 30.55ZM38.5783 36L51.4283 6.75H34.4783V0.999998H58.3283V5.75L45.5783 36H38.5783Z" fill="url(#paint0_linear_6428_496)"/>
<defs>
<linearGradient id="paint0_linear_6428_496" x1="29.6596" y1="-26.5" x2="29.6596" y2="57" gradientUnits="userSpaceOnUse">
<stop stop-color="#98BCD3"/>
<stop offset="1" stop-color="#003E68"/>
</linearGradient>
</defs>
</svg>
