<svg width="62" height="37" viewBox="0 0 62 37" fill="none" xmlns="http://www.w3.org/2000/svg">
<path d="M15.6771 36.6C12.5105 36.6 9.77715 35.8333 7.47715 34.3C5.17715 32.7667 3.41048 30.65 2.17715 27.95C0.977149 25.2167 0.377149 22.0667 0.377149 18.5C0.377149 14.9333 0.977149 11.8 2.17715 9.1C3.41048 6.36667 5.16048 4.23333 7.42715 2.7C9.72715 1.16667 12.4771 0.399999 15.6771 0.399999C18.8771 0.399999 21.6105 1.16667 23.8772 2.7C26.1772 4.23333 27.9272 6.36667 29.1272 9.1C30.3605 11.8 30.9772 14.9333 30.9772 18.5C30.9772 22.0667 30.3605 25.2167 29.1272 27.95C27.9272 30.65 26.1772 32.7667 23.8772 34.3C21.6105 35.8333 18.8771 36.6 15.6771 36.6ZM15.6771 30.55C17.3438 30.55 18.8105 30.0667 20.0771 29.1C21.3438 28.1 22.3271 26.7 23.0271 24.9C23.7605 23.1 24.1271 20.9667 24.1271 18.5C24.1271 16 23.7605 13.8667 23.0271 12.1C22.3271 10.3 21.3438 8.91667 20.0771 7.95C18.8105 6.98333 17.3438 6.5 15.6771 6.5C14.0105 6.5 12.5438 6.98333 11.2771 7.95C10.0105 8.91667 9.01048 10.3 8.27715 12.1C7.57715 13.8667 7.22715 16 7.22715 18.5C7.22715 20.9667 7.57715 23.1 8.27715 24.9C9.01048 26.7 10.0105 28.1 11.2771 29.1C12.5438 30.0667 14.0105 30.55 15.6771 30.55ZM49.0822 36.6C46.7156 36.6 44.5489 36.1667 42.5822 35.3C40.6489 34.4333 39.1156 33.2167 37.9822 31.65C36.8489 30.0833 36.2822 28.2667 36.2822 26.2C36.2822 24.7667 36.5156 23.4667 36.9822 22.3C37.4822 21.1333 38.1656 20.1 39.0322 19.2C39.8989 18.3 40.9322 17.6167 42.1322 17.15C40.6322 16.45 39.4156 15.45 38.4822 14.15C37.5822 12.85 37.1322 11.3833 37.1322 9.75C37.1322 8.11667 37.5822 6.58333 38.4822 5.15C39.3822 3.71667 40.7156 2.56666 42.4822 1.7C44.2489 0.833332 46.4489 0.399999 49.0822 0.399999C51.7156 0.399999 53.9156 0.833332 55.6822 1.7C57.4489 2.56666 58.7822 3.71667 59.6822 5.15C60.5822 6.58333 61.0322 8.11667 61.0322 9.75C61.0322 11.35 60.5656 12.8167 59.6322 14.15C58.7322 15.45 57.5322 16.45 56.0322 17.15C57.2322 17.65 58.2656 18.35 59.1322 19.25C60.0322 20.1167 60.7156 21.1333 61.1822 22.3C61.6822 23.4667 61.9322 24.7667 61.9322 26.2C61.9322 28.2667 61.3489 30.0833 60.1822 31.65C59.0489 33.2167 57.5156 34.4333 55.5822 35.3C53.6489 36.1667 51.4822 36.6 49.0822 36.6ZM49.0822 30.95C51.1489 30.95 52.6989 30.45 53.7322 29.45C54.7656 28.45 55.2822 27.1833 55.2822 25.65C55.2822 23.95 54.7322 22.6167 53.6322 21.65C52.5656 20.65 51.0489 20.15 49.0822 20.15C47.1489 20.15 45.6156 20.65 44.4822 21.65C43.3822 22.6167 42.8322 23.95 42.8322 25.65C42.8322 27.1833 43.3656 28.45 44.4322 29.45C45.4989 30.45 47.0489 30.95 49.0822 30.95ZM49.0822 15.2C50.7822 15.2 52.0822 14.7667 52.9822 13.9C53.9156 13.0333 54.3822 11.9167 54.3822 10.55C54.3822 9.08333 53.9156 7.95 52.9822 7.15C52.0822 6.31666 50.7822 5.9 49.0822 5.9C47.4156 5.9 46.1156 6.31666 45.1822 7.15C44.2489 7.95 43.7822 9.1 43.7822 10.6C43.7822 11.9333 44.2489 13.0333 45.1822 13.9C46.1156 14.7667 47.4156 15.2 49.0822 15.2Z" fill="url(#paint0_linear_6428_501)"/>
<defs>
<linearGradient id="paint0_linear_6428_501" x1="32.2128" y1="-26.5" x2="32.2128" y2="57" gradientUnits="userSpaceOnUse">
<stop stop-color="#98BCD3"/>
<stop offset="1" stop-color="#003E68"/>
</linearGradient>
</defs>
</svg>
