<svg width="975" height="931" viewBox="0 0 975 931" fill="none" xmlns="http://www.w3.org/2000/svg">
<path d="M300.155 651.876C300.155 653.437 298.95 654.705 297.465 654.705C295.981 654.705 294.776 653.437 294.776 651.876C294.776 650.315 295.981 649.047 297.465 649.047C298.95 649.066 300.155 650.315 300.155 651.876Z" fill="white"/>
<path d="M516.981 23.627C518.467 23.627 519.671 22.3605 519.671 20.7983C519.671 19.2361 518.467 17.9697 516.981 17.9697C515.496 17.9697 514.292 19.2361 514.292 20.7983C514.292 22.3605 515.496 23.627 516.981 23.627Z" fill="white"/>
<g opacity="0.7">
<path opacity="0.7" d="M97.0024 431.28L482.735 9.72314" stroke="#969696" stroke-width="2" stroke-miterlimit="10" stroke-linecap="round" stroke-linejoin="round" stroke-dasharray="0.3 0.3"/>
<path opacity="0.7" d="M100.093 465.665L510.066 16.8862" stroke="#969696" stroke-width="2" stroke-miterlimit="10" stroke-linecap="round" stroke-linejoin="round" stroke-dasharray="0.3 0.3"/>
<path opacity="0.7" d="M112.475 489.597L534.06 27.7964" stroke="#969696" stroke-width="2" stroke-miterlimit="10" stroke-linecap="round" stroke-linejoin="round" stroke-dasharray="0.3 0.3"/>
<path opacity="0.7" d="M129.903 507.892L560.919 35.5112" stroke="#969696" stroke-width="2" stroke-miterlimit="10" stroke-linecap="round" stroke-linejoin="round" stroke-dasharray="0.3 0.3"/>
<path opacity="0.7" d="M143.472 530.503L588.005 42.9502" stroke="#969696" stroke-width="2" stroke-miterlimit="10" stroke-linecap="round" stroke-linejoin="round" stroke-dasharray="0.3 0.3"/>
<path opacity="0.7" d="M159.434 550.431L616.75 48.5337" stroke="#969696" stroke-width="2" stroke-miterlimit="10" stroke-linecap="round" stroke-linejoin="round" stroke-dasharray="0.3 0.3"/>
<path opacity="0.7" d="M175.273 570.507L638.753 61.6665" stroke="#969696" stroke-width="2" stroke-miterlimit="10" stroke-linecap="round" stroke-linejoin="round" stroke-dasharray="0.3 0.3"/>
<path opacity="0.7" d="M191.13 590.547L665.682 69.29" stroke="#969696" stroke-width="2" stroke-miterlimit="10" stroke-linecap="round" stroke-linejoin="round" stroke-dasharray="0.3 0.3"/>
<path opacity="0.7" d="M207.476 610.035L687.581 82.5508" stroke="#969696" stroke-width="2" stroke-miterlimit="10" stroke-linecap="round" stroke-linejoin="round" stroke-dasharray="0.3 0.3"/>
<path opacity="0.7" d="M221.918 631.69L705.813 99.9263" stroke="#969696" stroke-width="2" stroke-miterlimit="10" stroke-linecap="round" stroke-linejoin="round" stroke-dasharray="0.3 0.3"/>
<path opacity="0.7" d="M238.299 651.142L726.386 114.676" stroke="#969696" stroke-width="2" stroke-miterlimit="10" stroke-linecap="round" stroke-linejoin="round" stroke-dasharray="0.3 0.3"/>
<path opacity="0.7" d="M255.675 669.473L746.66 129.774" stroke="#969696" stroke-width="2" stroke-miterlimit="10" stroke-linecap="round" stroke-linejoin="round" stroke-dasharray="0.3 0.3"/>
<path opacity="0.7" d="M270.327 690.871L743.954 170.642" stroke="#969696" stroke-width="2" stroke-miterlimit="10" stroke-linecap="round" stroke-linejoin="round" stroke-dasharray="0.3 0.3"/>
</g>
<g opacity="0.7">
<g opacity="0.7">
<path opacity="0.7" d="M324.342 670.409L710.092 248.852" stroke="#969696" stroke-width="2" stroke-miterlimit="10" stroke-linecap="round" stroke-linejoin="round" stroke-dasharray="0.3 0.3"/>
<path opacity="0.7" d="M327.433 704.794L737.422 256.016" stroke="#969696" stroke-width="2" stroke-miterlimit="10" stroke-linecap="round" stroke-linejoin="round" stroke-dasharray="0.3 0.3"/>
<path opacity="0.7" d="M339.832 728.727L761.417 266.926" stroke="#969696" stroke-width="2" stroke-miterlimit="10" stroke-linecap="round" stroke-linejoin="round" stroke-dasharray="0.3 0.3"/>
<path opacity="0.7" d="M357.243 747.021L788.258 274.622" stroke="#969696" stroke-width="2" stroke-miterlimit="10" stroke-linecap="round" stroke-linejoin="round" stroke-dasharray="0.3 0.3"/>
<path opacity="0.7" d="M370.83 769.613L815.345 282.061" stroke="#969696" stroke-width="2" stroke-miterlimit="10" stroke-linecap="round" stroke-linejoin="round" stroke-dasharray="0.3 0.3"/>
<path opacity="0.7" d="M386.792 789.561L844.09 287.645" stroke="#969696" stroke-width="2" stroke-miterlimit="10" stroke-linecap="round" stroke-linejoin="round" stroke-dasharray="0.3 0.3"/>
<path opacity="0.7" d="M402.613 809.636L866.093 300.795" stroke="#969696" stroke-width="2" stroke-miterlimit="10" stroke-linecap="round" stroke-linejoin="round" stroke-dasharray="0.3 0.3"/>
<path opacity="0.7" d="M418.47 829.676L893.022 308.419" stroke="#969696" stroke-width="2" stroke-miterlimit="10" stroke-linecap="round" stroke-linejoin="round" stroke-dasharray="0.3 0.3"/>
<path opacity="0.7" d="M434.833 849.164L914.921 321.68" stroke="#969696" stroke-width="2" stroke-miterlimit="10" stroke-linecap="round" stroke-linejoin="round" stroke-dasharray="0.3 0.3"/>
<path opacity="0.7" d="M449.258 870.802L933.17 339.038" stroke="#969696" stroke-width="2" stroke-miterlimit="10" stroke-linecap="round" stroke-linejoin="round" stroke-dasharray="0.3 0.3"/>
<path opacity="0.7" d="M465.639 890.271L953.743 353.805" stroke="#969696" stroke-width="2" stroke-miterlimit="10" stroke-linecap="round" stroke-linejoin="round" stroke-dasharray="0.3 0.3"/>
<path opacity="0.7" d="M483.032 908.583L974 368.903" stroke="#969696" stroke-width="2" stroke-miterlimit="10" stroke-linecap="round" stroke-linejoin="round" stroke-dasharray="0.3 0.3"/>
<path opacity="0.7" d="M497.685 930L971.311 409.771" stroke="#969696" stroke-width="2" stroke-miterlimit="10" stroke-linecap="round" stroke-linejoin="round" stroke-dasharray="0.3 0.3"/>
</g>
</g>
<path d="M656.968 186.163C661.8 186.163 665.717 182.043 665.717 176.961C665.717 171.879 661.8 167.759 656.968 167.759C652.136 167.759 648.219 171.879 648.219 176.961C648.219 182.043 652.136 186.163 656.968 186.163Z" fill="url(#paint0_linear_6715_132)"/>
<path d="M656.968 192.72C665.243 192.72 671.951 185.664 671.951 176.961C671.951 168.257 665.243 161.201 656.968 161.201C648.693 161.201 641.984 168.257 641.984 176.961C641.984 185.664 648.693 192.72 656.968 192.72Z" stroke="url(#paint1_linear_6715_132)" stroke-miterlimit="10"/>
<path d="M466.861 630.459C466.861 636.612 462.111 641.608 456.26 641.608C450.41 641.608 445.66 636.612 445.66 630.459C445.66 624.306 450.41 619.31 456.26 619.31C462.111 619.31 466.861 624.288 466.861 630.459Z" stroke="url(#paint2_linear_6715_132)" stroke-miterlimit="10"/>
<path d="M699.23 226.646C710.765 226.646 720.116 216.811 720.116 204.678C720.116 192.546 710.765 182.71 699.23 182.71C687.695 182.71 678.344 192.546 678.344 204.678C678.344 216.811 687.695 226.646 699.23 226.646Z" fill="url(#paint3_linear_6715_132)"/>
<path d="M109.733 442.76C109.733 448.38 105.402 452.935 100.058 452.935C94.7146 452.935 90.3836 448.38 90.3836 442.76C90.3836 437.139 94.7146 432.584 100.058 432.584C105.402 432.584 109.733 437.139 109.733 442.76Z" fill="url(#paint4_linear_6715_132)"/>
<path d="M594.221 151.631L609.799 132.106" stroke="url(#paint5_linear_6715_132)" stroke-miterlimit="10"/>
<path d="M599.006 155.838L623.473 125.182" stroke="url(#paint6_linear_6715_132)" stroke-miterlimit="10"/>
<path d="M594.221 172.057L619.351 140.538" stroke="url(#paint7_linear_6715_132)" stroke-miterlimit="10"/>
<path d="M119.006 378.951L134.566 359.426" stroke="url(#paint8_linear_6715_132)" stroke-miterlimit="10"/>
<path d="M123.774 383.175L148.24 352.501" stroke="url(#paint9_linear_6715_132)" stroke-miterlimit="10"/>
<path d="M119.006 399.375L144.119 367.856" stroke="url(#paint10_linear_6715_132)" stroke-miterlimit="10"/>
<path d="M638.3 488.22L658.173 463.276" stroke="url(#paint11_linear_6715_132)" stroke-miterlimit="10"/>
<path d="M644.394 493.602L675.636 454.423" stroke="url(#paint12_linear_6715_132)" stroke-miterlimit="10"/>
<path d="M638.3 514.302L670.398 474.059" stroke="url(#paint13_linear_6715_132)" stroke-miterlimit="10"/>
<g opacity="0.5">
<path opacity="0.5" d="M606.062 52.7944L582.731 80.1439" stroke="url(#paint14_linear_6715_132)" stroke-miterlimit="10"/>
<path opacity="0.5" d="M612.751 59.1138L576.112 102.076" stroke="url(#paint15_linear_6715_132)" stroke-miterlimit="10"/>
<path opacity="0.5" d="M633.777 48.644L596.125 92.7817" stroke="url(#paint16_linear_6715_132)" stroke-miterlimit="10"/>
</g>
<path d="M109.733 476.354L139.334 439.232" stroke="url(#paint17_linear_6715_132)" stroke-miterlimit="10"/>
<path d="M118.814 484.362L165.319 426.062" stroke="url(#paint18_linear_6715_132)" stroke-miterlimit="10"/>
<path d="M109.733 515.183L157.496 455.268" stroke="url(#paint19_linear_6715_132)" stroke-miterlimit="10"/>
<path d="M165.319 395.849C168.531 395.849 171.135 393.111 171.135 389.733C171.135 386.355 168.531 383.616 165.319 383.616C162.108 383.616 159.504 386.355 159.504 389.733C159.504 393.111 162.108 395.849 165.319 395.849Z" fill="white"/>
<path d="M169.144 518.159C169.144 521.539 166.542 524.276 163.328 524.276C160.115 524.276 157.513 521.539 157.513 518.159C157.513 514.78 160.115 512.043 163.328 512.043C166.542 512.043 169.144 514.78 169.144 518.159Z" fill="white"/>
<path d="M138.688 221.521C138.688 223.082 137.483 224.35 135.998 224.35C134.514 224.35 133.309 223.082 133.309 221.521C133.309 219.96 134.514 218.692 135.998 218.692C137.483 218.711 138.688 219.96 138.688 221.521Z" fill="white"/>
<path d="M654.348 303.275C655.834 303.275 657.038 302.009 657.038 300.447C657.038 298.885 655.834 297.618 654.348 297.618C652.863 297.618 651.659 298.885 651.659 300.447C651.659 302.009 652.863 303.275 654.348 303.275Z" fill="white"/>
<path d="M681.015 555.042C681.015 556.603 679.81 557.871 678.326 557.871C676.841 557.871 675.636 556.603 675.636 555.042C675.636 553.481 676.841 552.213 678.326 552.213C679.81 552.232 681.015 553.481 681.015 555.042Z" fill="white"/>
<path d="M109.733 183.077C112.945 183.077 115.548 180.338 115.548 176.96C115.548 173.582 112.945 170.844 109.733 170.844C106.521 170.844 103.918 173.582 103.918 176.96C103.918 180.338 106.521 183.077 109.733 183.077Z" fill="white"/>
<path d="M268.074 583.677C268.074 587.057 265.472 589.794 262.259 589.794C259.045 589.794 256.443 587.057 256.443 583.677C256.443 580.297 259.045 577.561 262.259 577.561C265.472 577.561 268.074 580.297 268.074 583.677Z" fill="white"/>
<path d="M644.115 579.986C644.115 583.365 641.513 586.102 638.299 586.102C635.086 586.102 632.484 583.365 632.484 579.986C632.484 576.606 635.086 573.869 638.299 573.869C641.513 573.869 644.115 576.606 644.115 579.986Z" fill="white"/>
<path d="M743.674 399.376C743.674 402.755 741.072 405.492 737.859 405.492C734.646 405.492 732.044 402.755 732.044 399.376C732.044 395.996 734.646 393.259 737.859 393.259C741.072 393.241 743.674 395.996 743.674 399.376Z" fill="white"/>
<path d="M44.6818 315.508C47.8935 315.508 50.4971 312.77 50.4971 309.392C50.4971 306.014 47.8935 303.275 44.6818 303.275C41.47 303.275 38.8664 306.014 38.8664 309.392C38.8664 312.77 41.47 315.508 44.6818 315.508Z" fill="white"/>
<path d="M209.152 589.922L225.219 596.791L232.448 570.525L209.152 589.922Z" fill="#003E68"/>
<path d="M165.32 567.991L178.382 603.073L228.52 556.896L165.32 567.991Z" fill="url(#paint20_linear_6715_132)"/>
<path d="M731.258 279.159L724.255 316.115L667.184 279.912L731.258 279.159Z" fill="#003E68"/>
<path d="M154.946 138.628L133.693 154.296L159.259 168.2L154.946 138.628Z" fill="#003E68"/>
<path d="M675.776 341.205L651.624 331.231L654.732 361.318L675.776 341.205Z" fill="url(#paint21_linear_6715_132)"/>
<path d="M454.462 73.4772C430.974 59.7381 401.88 50.7012 375.196 58.7463C354.484 64.9913 338.854 81.2651 327.049 99.5961C313.759 120.223 304.399 143.348 294.479 165.885C288.402 179.679 281.784 192.941 272.912 205.027C263.377 218.031 252.026 229.566 239.365 239.154C226.267 249.054 211.842 256.787 196.544 262.132C179.098 268.23 160.971 271.61 143.071 275.871C113.645 282.906 82.4382 293.835 63.176 319.88C54.6538 331.397 49.5894 345.356 49.3624 359.995C49.1179 375.02 53.6933 389.824 60.9057 402.682C77.269 431.905 105.717 448.619 135.405 459.328C167.188 470.789 200.736 476.244 231.855 489.836C247.398 496.632 262.277 505.541 274.606 517.719C286.83 529.805 296.278 544.517 304.678 559.689C320.517 588.343 333.266 619.586 356.091 643.152C366.621 654.025 379.212 662.824 393.427 667.305C407.712 671.787 422.976 671.787 437.488 668.536C505.682 653.236 536.034 580.959 563.521 521.613C578.889 488.441 595.934 456.15 621.832 430.711C646.84 406.153 676.685 387.418 699.998 360.895C720.71 337.348 736.287 307.188 732.638 274.181C729.162 242.809 710.599 215.056 687.826 195.42C661.596 172.81 629.149 159.585 597.645 147.426C580.74 140.905 563.626 134.825 547.211 127.001C531.004 119.268 515.427 110.213 500.042 100.845C492.69 96.3634 485.39 91.8082 478.055 87.2897C470.267 82.4958 462.181 78.3446 454.305 73.7343C453.694 73.367 453.135 74.3589 453.746 74.7262C461.605 79.3181 469.079 84.6631 476.833 89.4571C484.168 93.9756 491.467 98.5308 498.819 103.012C513.855 112.178 529.084 121.031 544.888 128.635C576.235 143.734 609.73 153.193 640.989 168.548C670.136 182.857 697.553 202.07 715.052 231.127C723.085 244.462 728.813 259.524 730.385 275.283C732.026 291.722 728.883 308.161 722.212 323.058C708.241 354.264 682.203 376.526 656.864 397.226C643.417 408.21 629.83 419.102 617.553 431.537C605.678 443.55 595.462 457.124 586.591 471.708C568.498 501.445 555.837 534.286 540.312 565.493C525.154 595.947 506.608 626.437 479.33 646.385C454.13 664.807 420.932 674.689 391.052 663.889C361.644 653.254 342.207 625.096 327.398 597.839C311.681 568.891 298.618 537.133 274.641 514.394C250.961 491.949 219.823 481.332 189.611 472.846C157.688 463.883 124.35 456.536 96.1994 437.397C71.3663 420.517 50.7245 391.312 51.7025 359.003C52.6804 326.272 77.8278 303.257 104.442 290.914C136.383 276.091 172.218 274.787 204.7 261.636C231.908 250.615 256.025 231.623 273.96 207.488C289.887 186.071 298.863 160.559 310.057 136.313C319.714 115.392 330.664 93.9388 347.237 78.1059C364.351 61.7402 386.32 55.5687 409.092 58.9116C424.792 61.2076 439.723 67.0852 453.606 75.0384C454.549 75.5344 455.388 74.0282 454.462 73.4772Z" fill="url(#paint22_linear_6715_132)"/>
<g opacity="0.4248">
<path opacity="0.4248" d="M463.543 20.2841C436.684 4.57966 403.399 -5.74298 372.89 3.47761C349.227 10.6226 331.362 29.2292 317.88 50.1684C302.67 73.7892 291.965 100.257 280.596 126.045C273.628 141.86 266.049 157.032 255.903 170.881C244.988 185.777 231.978 199.02 217.448 209.986C202.447 221.337 185.909 230.19 168.393 236.307C148.433 243.286 127.669 247.144 107.184 252.048C73.5318 260.093 37.819 272.583 15.7802 302.375C6.05301 315.527 0.290067 331.47 0.0106521 348.184C-0.268763 365.358 4.97028 382.256 13.1956 396.951C31.8989 430.362 64.4333 449.482 98.3823 461.715C134.776 474.83 173.178 481.075 208.804 496.632C226.634 504.42 243.696 514.633 257.824 528.592C271.829 542.423 282.657 559.285 292.279 576.679C310.389 609.465 324.988 645.227 351.113 672.191C363.146 684.626 377.518 694.673 393.777 699.798C410.105 704.922 427.534 704.922 444.124 701.212C522.133 683.707 556.85 600.998 588.302 533.092C605.905 495.108 625.412 458.115 655.1 428.984C683.74 400.881 717.898 379.428 744.583 349.066C768.263 322.139 786.076 287.663 781.884 249.917C777.903 214.063 756.667 182.324 730.629 159.879C700.627 134.017 663.5 118.882 627.473 104.978C608.106 97.5019 588.494 90.5405 569.686 81.5771C551.14 72.7239 533.292 62.3645 515.689 51.6194C507.272 46.4948 498.907 41.2784 490.524 36.0987C481.618 30.6067 472.397 25.776 463.386 20.5045C462.775 20.1371 462.216 21.129 462.827 21.4963C471.821 26.7495 480.43 32.7925 489.319 38.2661C497.702 43.4458 506.084 48.6438 514.484 53.7868C531.686 64.2748 549.114 74.4137 567.206 83.12C603.094 100.404 641.443 111.223 677.226 128.801C710.616 145.203 742.015 167.207 762.081 200.49C771.284 215.772 777.85 233.056 779.649 251.129C781.535 269.993 777.92 288.82 770.254 305.92C754.24 341.664 724.43 367.158 695.423 390.871C680.02 403.453 664.478 415.906 650.42 430.141C636.833 443.88 625.15 459.419 615.004 476.097C594.292 510.151 579.797 547.75 562.02 583.475C544.643 618.374 523.408 653.29 492.148 676.14C463.264 697.244 425.193 708.577 390.948 696.179C357.243 683.983 334.942 651.729 317.968 620.467C299.98 587.35 285.032 551.001 257.597 524.974C230.511 499.296 194.885 487.155 160.325 477.456C123.774 467.189 85.5816 458.758 53.3615 436.864C24.8961 417.523 1.2331 384.02 2.3333 346.972C3.45096 309.447 32.2831 283.034 62.7918 268.873C99.3603 251.901 140.417 250.413 177.614 235.333C208.716 222.733 236.309 200.986 256.828 173.397C275.06 148.876 285.329 119.69 298.129 91.9549C309.201 67.985 321.74 43.4274 340.723 25.2801C360.369 6.50827 385.551 -0.563301 411.694 3.29392C429.682 5.93887 446.778 12.6615 462.67 21.7902C463.648 22.3229 464.486 20.8167 463.543 20.2841Z" fill="url(#paint23_linear_6715_132)"/>
</g>
<path d="M589.943 435.633C610.515 412.251 636.536 395.463 658.994 374.303C678.57 355.862 696.558 332.425 700.959 304.414C705.185 277.377 695.196 250.781 679.077 230.007C661.125 206.863 636.134 191.839 610.393 180.157C582.26 167.391 552.554 158.703 524.962 144.597C497.474 130.527 472.222 112.306 445.136 97.5204C424.617 86.3161 399.417 79.465 376.592 86.3896C359.024 91.7162 345.403 105.014 334.96 120.333C323.032 137.819 314.632 157.693 306.127 177.144C301.255 188.312 296.488 199.516 290.078 209.839C282.901 221.374 274.222 231.862 264.39 240.972C254.313 250.321 242.997 258.183 230.877 264.263C216.924 271.261 201.923 275.357 186.887 278.865C159.539 285.238 131.039 290.381 108.074 308.492C98.417 316.115 90.0694 325.813 85.1971 337.55C80.3248 349.268 79.3469 362.254 81.8092 374.744C87.1007 401.524 105.787 423.088 127.843 436.386C177.684 466.454 243.87 461.293 286.691 505.192C307.472 526.498 318.736 555.189 333.231 581.069C346.101 604.065 362.674 626.933 386.896 637.274C411.607 647.835 439.758 642.325 462.513 629.064C487.119 614.737 505.141 591.079 519.286 566.026C522.849 559.707 526.202 553.278 529.415 546.758C532.733 540.054 535.283 533.037 538.409 526.241C538.706 525.58 537.78 524.992 537.466 525.653C534.375 532.394 530.638 538.841 527.354 545.472C524.054 552.14 520.631 558.752 516.964 565.217C509.751 577.946 501.666 590.161 492.096 601.053C473.637 622.066 448.751 637.862 421.177 640.103C407.922 641.186 394.545 638.817 382.617 632.535C370.969 626.4 361.155 617.125 352.842 606.673C335.326 584.65 324.848 557.87 310.598 533.607C303.508 521.539 295.405 510.004 285.363 500.471C275.269 490.883 263.447 483.536 251.048 477.787C225.568 465.958 198.063 460.632 171.484 452.311C145.009 444.027 118.098 432.18 100.338 408.963C84.2541 387.932 76.6226 358.617 89.6154 333.803C102.224 309.723 127.843 296.902 152.012 289.904C180.286 281.712 209.921 278.608 236.291 264.226C258.539 252.103 277.767 233.901 291.598 211.933C303.403 193.198 310.685 171.561 320.255 151.54C328.708 133.888 338.47 115.998 352.86 102.921C367.773 89.3652 386.616 84.2405 406.053 86.812C435.06 90.6325 459.579 108.835 484.22 123.97C497.195 131.942 510.275 139.766 523.809 146.672C536.855 153.34 550.301 158.758 563.923 163.956C614.602 183.371 676.423 205.798 695.493 265.126C699.701 278.204 700.941 292.2 698.479 305.792C695.964 319.641 689.974 332.499 682.273 343.96C665.822 368.499 642.351 385.875 620.278 404.316C609.153 413.61 598.326 423.308 588.773 434.384C588.057 435.229 589.227 436.46 589.943 435.633Z" fill="url(#paint24_linear_6715_132)"/>
<defs>
<linearGradient id="paint0_linear_6715_132" x1="648.227" y1="176.968" x2="665.708" y2="176.968" gradientUnits="userSpaceOnUse">
<stop offset="0.0277" stop-color="#FFD24D"/>
<stop offset="0.7154" stop-color="#F6BE56"/>
<stop offset="1" stop-color="#F2B45A"/>
</linearGradient>
<linearGradient id="paint1_linear_6715_132" x1="641.105" y1="176.968" x2="672.828" y2="176.968" gradientUnits="userSpaceOnUse">
<stop offset="0.0277" stop-color="#FFD24D"/>
<stop offset="0.7154" stop-color="#F6BE56"/>
<stop offset="1" stop-color="#F2B45A"/>
</linearGradient>
<linearGradient id="paint2_linear_6715_132" x1="444.782" y1="630.452" x2="467.725" y2="630.452" gradientUnits="userSpaceOnUse">
<stop offset="0.0277" stop-color="#FFD24D"/>
<stop offset="0.7154" stop-color="#F6BE56"/>
<stop offset="1" stop-color="#F2B45A"/>
</linearGradient>
<linearGradient id="paint3_linear_6715_132" x1="678.335" y1="204.686" x2="720.119" y2="204.686" gradientUnits="userSpaceOnUse">
<stop offset="0.0277" stop-color="#FFD24D"/>
<stop offset="0.7154" stop-color="#F6BE56"/>
<stop offset="1" stop-color="#F2B45A"/>
</linearGradient>
<linearGradient id="paint4_linear_6715_132" x1="90.3969" y1="442.754" x2="109.732" y2="442.754" gradientUnits="userSpaceOnUse">
<stop stop-color="#1C5175"/>
<stop offset="0.5" stop-color="#2875A8"/>
<stop offset="1" stop-color="#3498DB"/>
</linearGradient>
<linearGradient id="paint5_linear_6715_132" x1="592.867" y1="142.709" x2="611.174" y2="141.184" gradientUnits="userSpaceOnUse">
<stop offset="0.0277" stop-color="#FFD24D"/>
<stop offset="0.7154" stop-color="#F6BE56"/>
<stop offset="1" stop-color="#F2B45A"/>
</linearGradient>
<linearGradient id="paint6_linear_6715_132" x1="597.22" y1="141.802" x2="625.279" y2="139.464" gradientUnits="userSpaceOnUse">
<stop offset="0.0277" stop-color="#FFD24D"/>
<stop offset="0.7154" stop-color="#F6BE56"/>
<stop offset="1" stop-color="#F2B45A"/>
</linearGradient>
<linearGradient id="paint7_linear_6715_132" x1="592.408" y1="157.621" x2="621.201" y2="155.222" gradientUnits="userSpaceOnUse">
<stop offset="0.0277" stop-color="#FFD24D"/>
<stop offset="0.7154" stop-color="#F6BE56"/>
<stop offset="1" stop-color="#F2B45A"/>
</linearGradient>
<linearGradient id="paint8_linear_6715_132" x1="118.33" y1="369.189" x2="135.236" y2="369.189" gradientUnits="userSpaceOnUse">
<stop offset="0.0277" stop-color="#FFD24D"/>
<stop offset="0.1674" stop-color="#EBC34D"/>
<stop offset="0.4544" stop-color="#B69D4D"/>
<stop offset="0.8604" stop-color="#625F4E"/>
<stop offset="1" stop-color="#44494E"/>
</linearGradient>
<linearGradient id="paint9_linear_6715_132" x1="123.11" y1="367.832" x2="148.906" y2="367.832" gradientUnits="userSpaceOnUse">
<stop offset="0.0277" stop-color="#FFD24D"/>
<stop offset="0.1674" stop-color="#EBC34D"/>
<stop offset="0.4544" stop-color="#B69D4D"/>
<stop offset="0.8604" stop-color="#625F4E"/>
<stop offset="1" stop-color="#44494E"/>
</linearGradient>
<linearGradient id="paint10_linear_6715_132" x1="118.33" y1="383.618" x2="144.796" y2="383.618" gradientUnits="userSpaceOnUse">
<stop offset="0.0277" stop-color="#FFD24D"/>
<stop offset="0.1674" stop-color="#EBC34D"/>
<stop offset="0.4544" stop-color="#B69D4D"/>
<stop offset="0.8604" stop-color="#625F4E"/>
<stop offset="1" stop-color="#44494E"/>
</linearGradient>
<linearGradient id="paint11_linear_6715_132" x1="636.722" y1="476.81" x2="659.766" y2="474.89" gradientUnits="userSpaceOnUse">
<stop offset="0.0277" stop-color="#FFD24D"/>
<stop offset="0.7154" stop-color="#F6BE56"/>
<stop offset="1" stop-color="#F2B45A"/>
</linearGradient>
<linearGradient id="paint12_linear_6715_132" x1="642.283" y1="475.651" x2="677.783" y2="472.694" gradientUnits="userSpaceOnUse">
<stop offset="0.0277" stop-color="#FFD24D"/>
<stop offset="0.7154" stop-color="#F6BE56"/>
<stop offset="1" stop-color="#F2B45A"/>
</linearGradient>
<linearGradient id="paint13_linear_6715_132" x1="636.135" y1="495.859" x2="672.575" y2="492.823" gradientUnits="userSpaceOnUse">
<stop offset="0.0277" stop-color="#FFD24D"/>
<stop offset="0.7154" stop-color="#F6BE56"/>
<stop offset="1" stop-color="#F2B45A"/>
</linearGradient>
<linearGradient id="paint14_linear_6715_132" x1="593.694" y1="52.8558" x2="595.246" y2="80.0845" gradientUnits="userSpaceOnUse">
<stop offset="0.0277" stop-color="#FFD24D"/>
<stop offset="0.7154" stop-color="#F6BE56"/>
<stop offset="1" stop-color="#F2B45A"/>
</linearGradient>
<linearGradient id="paint15_linear_6715_132" x1="593.348" y1="59.5779" x2="595.744" y2="101.616" gradientUnits="userSpaceOnUse">
<stop offset="0.0277" stop-color="#FFD24D"/>
<stop offset="0.7154" stop-color="#F6BE56"/>
<stop offset="1" stop-color="#F2B45A"/>
</linearGradient>
<linearGradient id="paint16_linear_6715_132" x1="613.841" y1="49.1344" x2="616.3" y2="92.2884" gradientUnits="userSpaceOnUse">
<stop offset="0.0277" stop-color="#FFD24D"/>
<stop offset="0.7154" stop-color="#F6BE56"/>
<stop offset="1" stop-color="#F2B45A"/>
</linearGradient>
<linearGradient id="paint17_linear_6715_132" x1="107.696" y1="459.345" x2="141.389" y2="456.538" gradientUnits="userSpaceOnUse">
<stop offset="0.0277" stop-color="#FFD24D"/>
<stop offset="0.1674" stop-color="#EBC34D"/>
<stop offset="0.4544" stop-color="#B69D4D"/>
<stop offset="0.8604" stop-color="#625F4E"/>
<stop offset="1" stop-color="#44494E"/>
</linearGradient>
<linearGradient id="paint18_linear_6715_132" x1="115.972" y1="457.62" x2="168.203" y2="453.268" gradientUnits="userSpaceOnUse">
<stop offset="0.0277" stop-color="#FFD24D"/>
<stop offset="0.1674" stop-color="#EBC34D"/>
<stop offset="0.4544" stop-color="#B69D4D"/>
<stop offset="0.8604" stop-color="#625F4E"/>
<stop offset="1" stop-color="#44494E"/>
</linearGradient>
<linearGradient id="paint19_linear_6715_132" x1="106.823" y1="487.694" x2="160.452" y2="483.225" gradientUnits="userSpaceOnUse">
<stop offset="0.0277" stop-color="#FFD24D"/>
<stop offset="0.1674" stop-color="#EBC34D"/>
<stop offset="0.4544" stop-color="#B69D4D"/>
<stop offset="0.8604" stop-color="#625F4E"/>
<stop offset="1" stop-color="#44494E"/>
</linearGradient>
<linearGradient id="paint20_linear_6715_132" x1="165.317" y1="579.987" x2="228.52" y2="579.987" gradientUnits="userSpaceOnUse">
<stop stop-color="#1C5175"/>
<stop offset="0.5" stop-color="#2875A8"/>
<stop offset="1" stop-color="#3498DB"/>
</linearGradient>
<linearGradient id="paint21_linear_6715_132" x1="648.679" y1="334.443" x2="666.767" y2="351.029" gradientUnits="userSpaceOnUse">
<stop offset="0.0277" stop-color="#FFD24D"/>
<stop offset="0.7154" stop-color="#F6BE56"/>
<stop offset="1" stop-color="#F2B45A"/>
</linearGradient>
<linearGradient id="paint22_linear_6715_132" x1="88.1103" y1="486.023" x2="731.508" y2="263.374" gradientUnits="userSpaceOnUse">
<stop stop-color="#1C5175"/>
<stop offset="0.5" stop-color="#2875A8"/>
<stop offset="0.75" stop-color="#2E86C2"/>
<stop offset="0.875" stop-color="#318FCE"/>
<stop offset="0.9375" stop-color="#3294D5"/>
<stop offset="0.96875" stop-color="#3396D8"/>
<stop offset="0.984375" stop-color="#3497D9"/>
<stop offset="0.992188" stop-color="#3497DA"/>
<stop offset="1" stop-color="#3498DB"/>
</linearGradient>
<linearGradient id="paint23_linear_6715_132" x1="0.00855654" y1="351.927" x2="782.509" y2="351.927" gradientUnits="userSpaceOnUse">
<stop stop-color="#5C5A44"/>
<stop offset="0.6103" stop-color="#3F4541"/>
<stop offset="1" stop-color="#313C40"/>
</linearGradient>
<linearGradient id="paint24_linear_6715_132" x1="242.246" y1="166.045" x2="592.067" y2="498.644" gradientUnits="userSpaceOnUse">
<stop stop-color="#313C40"/>
<stop offset="0.251" stop-color="#333E40"/>
<stop offset="0.397" stop-color="#3C4441"/>
<stop offset="0.5161" stop-color="#4A4E42"/>
<stop offset="0.6208" stop-color="#5E5D43"/>
<stop offset="0.716" stop-color="#786F44"/>
<stop offset="0.8042" stop-color="#988746"/>
<stop offset="0.8873" stop-color="#BDA249"/>
<stop offset="0.964" stop-color="#E8C14C"/>
<stop offset="1" stop-color="#FFD24D"/>
</linearGradient>
</defs>
</svg>
