<svg width="891" height="550" viewBox="0 0 891 550" fill="none" xmlns="http://www.w3.org/2000/svg">
<path d="M31.5 550C31.6 540.933 31.695 531.867 31.785 522.8C32.595 441.2 33 359.6 33 278C33 196.4 32.595 114.8 31.785 33.2C31.695 24.1334 31.6 15.0667 31.5 6C31.4 15.0667 31.305 24.1334 31.215 33.2C30.405 114.8 30 196.4 30 278C30 359.6 30.405 441.2 31.215 522.8C31.305 531.867 31.4 540.933 31.5 550Z" fill="#F3F3F3"/>
<path d="M90.5 550C90.6 540.933 90.695 531.867 90.785 522.8C91.595 441.2 92 359.6 92 278C92 196.4 91.595 114.8 90.785 33.2C90.695 24.1334 90.6 15.0667 90.5 6C90.4 15.0667 90.305 24.1334 90.215 33.2C89.405 114.8 89 196.4 89 278C89 359.6 89.405 441.2 90.215 522.8C90.305 531.867 90.4 540.933 90.5 550Z" fill="#F3F3F3"/>
<path d="M173.5 550C173.6 540.933 173.695 531.867 173.785 522.8C174.595 441.2 175 359.6 175 278C175 196.4 174.595 114.8 173.785 33.2C173.695 24.1334 173.6 15.0667 173.5 6C173.4 15.0667 173.305 24.1334 173.215 33.2C172.405 114.8 172 196.4 172 278C172 359.6 172.405 441.2 173.215 522.8C173.305 531.867 173.4 540.933 173.5 550Z" fill="#F3F3F3"/>
<path d="M256.5 550C256.6 540.933 256.695 531.867 256.785 522.8C257.595 441.2 258 359.6 258 278C258 196.4 257.595 114.8 256.785 33.2C256.695 24.1334 256.6 15.0667 256.5 6C256.4 15.0667 256.305 24.1334 256.215 33.2C255.405 114.8 255 196.4 255 278C255 359.6 255.405 441.2 256.215 522.8C256.305 531.867 256.4 540.933 256.5 550Z" fill="#F3F3F3"/>
<path d="M348.5 550C348.6 540.933 348.695 531.867 348.785 522.8C349.595 441.2 350 359.6 350 278C350 196.4 349.595 114.8 348.785 33.2C348.695 24.1334 348.6 15.0667 348.5 6C348.4 15.0667 348.305 24.1334 348.215 33.2C347.405 114.8 347 196.4 347 278C347 359.6 347.405 441.2 348.215 522.8C348.305 531.867 348.4 540.933 348.5 550Z" fill="#F3F3F3"/>
<path d="M0 43.5C14.5667 43.6 29.1333 43.695 43.7 43.785C174.8 44.595 305.9 45 437 45C568.1 45 699.2 44.595 830.3 43.785C844.867 43.695 859.433 43.6 874 43.5C859.433 43.4 844.867 43.305 830.3 43.215C699.2 42.405 568.1 42 437 42C305.9 42 174.8 42.405 43.7 43.215C29.1333 43.305 14.5667 43.4 0 43.5Z" fill="#F3F3F3"/>
<path d="M0 164.5C14.85 164.6 29.7 164.695 44.55 164.785C178.2 165.595 311.85 166 445.5 166C579.15 166 712.8 165.595 846.45 164.785C861.3 164.695 876.15 164.6 891 164.5C876.15 164.4 861.3 164.305 846.45 164.215C712.8 163.405 579.15 163 445.5 163C311.85 163 178.2 163.405 44.55 164.215C29.7 164.305 14.85 164.4 0 164.5Z" fill="#F3F3F3"/>
<path d="M0 273.5C14.85 273.6 29.7 273.695 44.55 273.785C178.2 274.595 311.85 275 445.5 275C579.15 275 712.8 274.595 846.45 273.785C861.3 273.695 876.15 273.6 891 273.5C876.15 273.4 861.3 273.305 846.45 273.215C712.8 272.405 579.15 272 445.5 272C311.85 272 178.2 272.405 44.55 273.215C29.7 273.305 14.85 273.4 0 273.5Z" fill="#F3F3F3"/>
<path d="M0 382.5C14.85 382.6 29.7 382.695 44.55 382.785C178.2 383.595 311.85 384 445.5 384C579.15 384 712.8 383.595 846.45 382.785C861.3 382.695 876.15 382.6 891 382.5C876.15 382.4 861.3 382.305 846.45 382.215C712.8 381.405 579.15 381 445.5 381C311.85 381 178.2 381.405 44.55 382.215C29.7 382.305 14.85 382.4 0 382.5Z" fill="#F3F3F3"/>
<path d="M0 503.5C14.85 503.6 29.7 503.695 44.55 503.785C178.2 504.595 311.85 505 445.5 505C579.15 505 712.8 504.595 846.45 503.785C861.3 503.695 876.15 503.6 891 503.5C876.15 503.4 861.3 503.305 846.45 503.215C712.8 502.405 579.15 502 445.5 502C311.85 502 178.2 502.405 44.55 503.215C29.7 503.305 14.85 503.4 0 503.5Z" fill="#F3F3F3"/>
<path d="M431.5 550C431.6 540.933 431.695 531.867 431.785 522.8C432.595 441.2 433 359.6 433 278C433 196.4 432.595 114.8 431.785 33.2C431.695 24.1334 431.6 15.0667 431.5 6C431.4 15.0667 431.305 24.1334 431.215 33.2C430.405 114.8 430 196.4 430 278C430 359.6 430.405 441.2 431.215 522.8C431.305 531.867 431.4 540.933 431.5 550Z" fill="#F3F3F3"/>
<path d="M523.5 550C523.6 540.933 523.695 531.867 523.785 522.8C524.595 441.2 525 359.6 525 278C525 196.4 524.595 114.8 523.785 33.2C523.695 24.1334 523.6 15.0667 523.5 6C523.4 15.0667 523.305 24.1334 523.215 33.2C522.405 114.8 522 196.4 522 278C522 359.6 522.405 441.2 523.215 522.8C523.305 531.867 523.4 540.933 523.5 550Z" fill="#F3F3F3"/>
<path d="M615.5 550C615.6 540.933 615.695 531.867 615.785 522.8C616.595 441.2 617 359.6 617 278C617 196.4 616.595 114.8 615.785 33.2C615.695 24.1334 615.6 15.0667 615.5 6C615.4 15.0667 615.305 24.1334 615.215 33.2C614.405 114.8 614 196.4 614 278C614 359.6 614.405 441.2 615.215 522.8C615.305 531.867 615.4 540.933 615.5 550Z" fill="#F3F3F3"/>
<path d="M698.5 550C698.6 540.933 698.695 531.867 698.785 522.8C699.595 441.2 700 359.6 700 278C700 196.4 699.595 114.8 698.785 33.2C698.695 24.1334 698.6 15.0667 698.5 6C698.4 15.0667 698.305 24.1334 698.215 33.2C697.405 114.8 697 196.4 697 278C697 359.6 697.405 441.2 698.215 522.8C698.305 531.867 698.4 540.933 698.5 550Z" fill="#F3F3F3"/>
<path d="M788.5 544C788.6 534.933 788.695 525.867 788.785 516.8C789.595 435.2 790 353.6 790 272C790 190.4 789.595 108.8 788.785 27.2C788.695 18.1334 788.6 9.06665 788.5 0C788.4 9.06665 788.305 18.1334 788.215 27.2C787.405 108.8 787 190.4 787 272C787 353.6 787.405 435.2 788.215 516.8C788.305 525.867 788.4 534.933 788.5 544Z" fill="#F3F3F3"/>
<path d="M853.5 544C853.6 534.933 853.695 525.867 853.785 516.8C854.595 435.2 855 353.6 855 272C855 190.4 854.595 108.8 853.785 27.2C853.695 18.1334 853.6 9.06665 853.5 0C853.4 9.06665 853.305 18.1334 853.215 27.2C852.405 108.8 852 190.4 852 272C852 353.6 852.405 435.2 853.215 516.8C853.305 525.867 853.4 534.933 853.5 544Z" fill="#F3F3F3"/>
</svg>
