<svg width="929" height="930" viewBox="0 0 929 930" fill="none" xmlns="http://www.w3.org/2000/svg">
<g opacity="0.4">
<path d="M464.5 788.44C286.082 788.44 141.444 643.68 141.444 465.112C141.444 286.543 286.082 141.784 464.5 141.784" fill="#003E68"/>
<path d="M104.317 465.112C104.317 266.028 265.583 104.626 464.5 104.626" stroke="#1D262D" stroke-miterlimit="10"/>
<path d="M464.5 825.597C265.583 825.597 104.317 664.195 104.317 465.111" stroke="#1D262D" stroke-width="4" stroke-miterlimit="10"/>
<path d="M104.317 465.112C104.317 266.028 265.583 104.626 464.5 104.626" stroke="#1D262D" stroke-miterlimit="10"/>
<path d="M464.5 825.597C265.583 825.597 104.317 664.195 104.317 465.111" stroke="#1D262D" stroke-width="4" stroke-miterlimit="10"/>
<path d="M71.0596 465.112C71.0596 247.641 247.212 71.3403 464.5 71.3403" stroke="#1D262D" stroke-miterlimit="10"/>
<path d="M464.5 858.883C247.212 858.883 71.0596 682.582 71.0596 465.111" stroke="#1D262D" stroke-width="4" stroke-miterlimit="10"/>
<path d="M71.0596 465.112C71.0596 247.641 247.212 71.3403 464.5 71.3403" stroke="#1D262D" stroke-miterlimit="10"/>
<path d="M464.5 858.883C247.212 858.883 71.0596 682.582 71.0596 465.111" stroke="#1D262D" stroke-width="4" stroke-miterlimit="10"/>
<path d="M37.9417 465.112C37.9417 229.324 228.91 38.1948 464.5 38.1948" stroke="#1D262D" stroke-miterlimit="10"/>
<path d="M464.5 892.028C228.91 892.028 37.9417 700.9 37.9417 465.111" stroke="#1D262D" stroke-width="4" stroke-miterlimit="10"/>
<path d="M2 465.111C2 209.471 209.074 2.22266 464.5 2.22266" stroke="#1D262D" stroke-miterlimit="10"/>
<path d="M464.5 928C209.074 928 2 720.752 2 465.111" stroke="#1D262D" stroke-width="4" stroke-miterlimit="10"/>
<path d="M464.5 141.56C642.918 141.56 787.556 286.32 787.556 464.888C787.556 643.457 642.918 788.216 464.5 788.216" fill="#E0F2FF"/>
<path d="M824.683 464.888C824.683 663.972 663.417 825.375 464.5 825.375" stroke="#1D262D" stroke-miterlimit="10"/>
<path d="M464.5 104.403C663.417 104.403 824.683 265.805 824.683 464.889" stroke="#1D262D" stroke-width="4" stroke-miterlimit="10"/>
<path d="M824.683 464.888C824.683 663.972 663.417 825.375 464.5 825.375" stroke="#1D262D" stroke-miterlimit="10"/>
<path d="M464.5 104.403C663.417 104.403 824.683 265.805 824.683 464.889" stroke="#1D262D" stroke-width="4" stroke-miterlimit="10"/>
<path d="M857.94 464.888C857.94 682.359 681.788 858.66 464.5 858.66" stroke="#1D262D" stroke-miterlimit="10"/>
<path d="M464.5 71.1179C681.788 71.1179 857.94 247.418 857.94 464.889" stroke="#1D262D" stroke-width="4" stroke-miterlimit="10"/>
<path d="M857.94 464.888C857.94 682.359 681.788 858.66 464.5 858.66" stroke="#1D262D" stroke-miterlimit="10"/>
<path d="M464.5 71.1179C681.788 71.1179 857.94 247.418 857.94 464.889" stroke="#1D262D" stroke-width="4" stroke-miterlimit="10"/>
<path d="M891.058 464.888C891.058 700.676 700.09 891.805 464.5 891.805" stroke="#1D262D" stroke-miterlimit="10"/>
<path d="M464.5 37.9722C700.09 37.9722 891.058 229.101 891.058 464.889" stroke="#1D262D" stroke-width="4" stroke-miterlimit="10"/>
<path d="M927 464.889C927 720.529 719.926 927.777 464.5 927.777" stroke="#1D262D" stroke-miterlimit="10"/>
<path d="M464.5 2.00028C719.926 2.00028 927 209.248 927 464.889" stroke="#1D262D" stroke-width="4" stroke-miterlimit="10"/>
</g>
</svg>
